<svg width="800" height="800" version="1.1" viewBox="0 0 800 800" xml:space="preserve" xmlns="http://www.w3.org/2000/svg"><path d="m31.998 0c-8.1961 1.4337e-4 -16.391 3.1169-22.625 9.3516-12.496 12.497-12.496 32.757 0 45.254l345.37 345.38-345.37 345.38c-12.496 12.497-12.496 32.757 0 45.254 12.497 12.496 32.757 12.496 45.254 0l345.37-345.38 345.37 345.38c12.497 12.496 32.757 12.496 45.254 0 12.496-12.497 12.496-32.757 0-45.254l-345.37-345.38 345.37-345.38c12.496-12.497 12.496-32.757 0-45.254-6.2344-6.2346-14.429-9.3514-22.625-9.3516-8.1961-1.4337e-4 -16.394 3.1163-22.629 9.3516l-345.37 345.38-345.37-345.38c-6.235-6.2352-14.433-9.3517-22.629-9.3516z" color="#000000" fill="#ffc020" stroke-linecap="round" style="-inkscape-stroke:none;paint-order:markers stroke fill"/></svg>
